<svg width="98" height="64" viewBox="0 0 98 64" fill="none" xmlns="http://www.w3.org/2000/svg">
<path d="M83.3 9.14286C83.3 4.11429 78.89 0 73.5 0H58.8V9.14286H73.5V21.2571L56.448 41.1429H39.2V18.2857H19.6C8.771 18.2857 0 26.4686 0 36.5714V50.2857H9.8C9.8 57.8743 16.366 64 24.5 64C32.634 64 39.2 57.8743 39.2 50.2857H61.152L83.3 24.4571V9.14286ZM24.5 54.8571C21.805 54.8571 19.6 52.8 19.6 50.2857H29.4C29.4 52.8 27.195 54.8571 24.5 54.8571Z" fill="black"/>
<path d="M39.2 4.57135H14.7V13.7141H39.2V4.57135Z" fill="black"/>
<path d="M83.2999 36.5714C75.1659 36.5714 68.5999 42.697 68.5999 50.2856C68.5999 57.8741 75.1659 63.9998 83.2999 63.9998C91.434 63.9998 98 57.8741 98 50.2856C98 42.697 91.434 36.5714 83.2999 36.5714ZM83.2999 54.857C80.6049 54.857 78.3999 52.7998 78.3999 50.2856C78.3999 47.7713 80.6049 45.7142 83.2999 45.7142C85.995 45.7142 88.2 47.7713 88.2 50.2856C88.2 52.7998 85.995 54.857 83.2999 54.857Z" fill="black"/>
</svg>
